# xmcd
#
# Track frame offsets: 
#        150
#        48911
#        60517
#        77062
#        114663
#        136886
#        153027
#        183096
#        207630
#        252711
#
# Disc length: 4735 seconds
#
# Revision: 1
# Processed by: cddbd v1.5.2PL0 Copyright (c) Steve Scherf et al.
# Submitted via: ExactAudioCopy v0.99pb4
#
DISCID=84127d0a
DTITLE=Canned Heat - Under The Dutch Skies 1970-74 CD2
DYEAR=2007
DGENRE=Blues
TTITLE0=Utah
TTITLE1=On The Road Again
TTITLE2=One More River To Cross
TTITLE3=Yuo Am What You Am
TTITLE4=I Need Someone
TTITLE5=L.A. Town
TTITLE6=Night Time Is The Right Time
TTITLE7=Shake, Rattle and Roll
TTITLE8=Black Night
TTITLE9=Dutch Boogie
EXTD=
EXTT0=
EXTT1=
EXTT2=
EXTT3=
EXTT4=
EXTT5=
EXTT6=
EXTT7=
EXTT8=
EXTT9=
PLAYORDER=
